# xmcd CD database file
#
# Track frame offsets:
#	150
#	46909
#	62727
#	87548
#	115241
#	136007
#	158687
#	183189
#	213982
#
# Disc length: 3232 seconds
#
# Revision: 0
# Processed by: cddbd v1.5.2PL0 Copyright (c) Steve Scherf et al.
# Submitted via: CDex 1.51
#
DISCID=720c9e09
DTITLE=Héctor Lavoe - El Cantante, The Originals
DYEAR=2007
DGENRE=Salsa
TTITLE0=El Cantante
TTITLE1=Che Che Colé
TTITLE2=Mi Gente
TTITLE3=Aguanile
TTITLE4=Que Lío
TTITLE5=Todo Tiene Su Final
TTITLE6=El Dia Del Suerte
TTITLE7=Periódico De Ayer
TTITLE8=Quitate Tú
EXTD=YEAR: 2007
EXTT0=
EXTT1=
EXTT2=
EXTT3=
EXTT4=
EXTT5=
EXTT6=
EXTT7=
EXTT8=
PLAYORDER=
